<?xml version="1.0" encoding="UTF-8"?>
<svg version="1.1" xmlns="http://www.w3.org/2000/svg" width="700" height="700">
<path d="M0 0 C14.49156525 13.3584799 21.29078908 28.477207 23 47.9375 C23.16749756 49.01942627 23.33499512 50.10135254 23.50756836 51.21606445 C25.89782425 69.27985749 24.90491343 89.20313061 21 106.9375 C20.60538522 108.88149346 20.21085998 110.8255051 19.81640625 112.76953125 C17.20315216 125.17266569 13.82546436 137.2590659 9.9375 149.3125 C9.73003143 149.9583606 9.52256287 150.60422119 9.30880737 151.26965332 C5.03857416 164.48186754 -0.08756443 176.57993331 -7 188.625 C-8.20838589 190.75387642 -9.41672013 192.88278216 -10.625 195.01171875 C-11.20467529 196.02210205 -11.78435059 197.03248535 -12.3815918 198.07348633 C-13.38574227 199.85047973 -14.36822872 201.64013425 -15.31567383 203.44799805 C-18.14097018 208.83216146 -21.44533949 213.0327089 -25.6875 217.375 C-26.30616943 218.02041748 -26.92483887 218.66583496 -27.56225586 219.33081055 C-28.80039617 220.61839299 -30.04288046 221.90181482 -31.29003906 223.18066406 C-32.76710984 224.69822565 -34.22523871 226.2341812 -35.6796875 227.7734375 C-41.43036555 233.75037173 -47.71255166 238.80237624 -54.36083984 243.72167969 C-55.96348009 244.91041196 -57.55417384 246.11519695 -59.14453125 247.3203125 C-65.33220369 252.00673964 -71.6051019 256.53900581 -78 260.9375 C-78.67933594 261.42734375 -79.35867188 261.9171875 -80.05859375 262.421875 C-94.38260137 272.49471212 -110.43250278 277.78231894 -127 282.9375 C-127.90395508 283.22399414 -128.80791016 283.51048828 -129.73925781 283.80566406 C-144.56952479 288.50145327 -159.48515905 292.02330897 -174.79931641 294.72558594 C-178.35942759 295.37287888 -181.84203032 296.13525584 -185.33203125 297.09375 C-201.7893328 301.54907012 -218.50383082 302.89721163 -235.42333984 304.49658203 C-241.74773172 305.09867795 -248.06066958 305.80141667 -254.375 306.5 C-263.63616408 307.50834012 -272.90486999 308.40266532 -282.18200684 309.24789429 C-288.1231031 309.79260875 -294.06171924 310.36297958 -300 310.9375 C-301.07733398 311.03998047 -302.15466797 311.14246094 -303.26464844 311.24804688 C-328.06249628 313.68561239 -352.04171346 319.20826733 -375 328.9375 C-376.76116588 329.65760364 -378.52289563 330.3763296 -380.28515625 331.09375 C-396.68239414 337.85242519 -412.22813422 345.67938685 -426.83984375 355.7578125 C-429.28177532 357.4421114 -431.72800874 359.06595085 -434.25 360.625 C-434.84683594 360.99496094 -435.44367188 361.36492187 -436.05859375 361.74609375 C-437.54772498 362.65994692 -439.04063121 363.5676511 -440.53515625 364.47265625 C-451.29736924 371.11767946 -460.54305529 379.28420125 -469.73828125 387.90234375 C-471.83376154 389.86456021 -473.95167659 391.79341538 -476.10546875 393.69140625 C-482.43483837 399.29512214 -487.97582563 405.2071599 -493.33984375 411.73828125 C-495.85524216 414.79630674 -498.50023944 417.7161943 -501.1875 420.625 C-509.07128933 429.1610932 -509.07128933 429.1610932 -515.59765625 438.7265625 C-516.29181641 439.82097656 -516.29181641 439.82097656 -517 440.9375 C-517.66 440.9375 -518.32 440.9375 -519 440.9375 C-519.51613742 438.54421996 -520.01269912 436.14918856 -520.5 433.75 C-520.64308594 433.09580078 -520.78617188 432.44160156 -520.93359375 431.76757812 C-523.0720418 421.02442246 -522.05568948 410.10170488 -520.75 399.3125 C-520.61432617 398.18440918 -520.47865234 397.05631836 -520.33886719 395.89404297 C-518.18389696 378.75400322 -514.17513712 363.06246932 -508 346.9375 C-507.65807617 346.03032227 -507.31615234 345.12314453 -506.96386719 344.18847656 C-502.35575 332.05362719 -497.10530259 320.80173038 -490.18017578 309.81884766 C-489.05277204 308.02162523 -487.95673944 306.20939893 -486.87109375 304.38671875 C-478.95897103 291.21016995 -469.89485861 278.40247663 -458.78076172 267.71728516 C-457.01675209 265.9542429 -455.38734606 264.12909038 -453.76171875 262.23828125 C-450.08207658 258.00416579 -446.28188698 253.89691523 -442.4375 249.8125 C-441.80392578 249.13574219 -441.17035156 248.45898438 -440.51757812 247.76171875 C-438.68677684 245.81213221 -436.84630614 243.87240049 -435 241.9375 C-434.14365967 241.03306152 -434.14365967 241.03306152 -433.27001953 240.11035156 C-431.88668673 238.67960699 -430.44809254 237.30266213 -429 235.9375 C-428.34 235.9375 -427.68 235.9375 -427 235.9375 C-426.76023437 235.36128906 -426.52046875 234.78507813 -426.2734375 234.19140625 C-424.74151671 231.48000044 -422.97926948 229.91308118 -420.625 227.875 C-417.7348127 225.34660593 -414.8535583 222.82066541 -412.05859375 220.1875 C-407.36218092 215.77096508 -402.67233653 211.5808941 -397.375 207.875 C-392.50074439 204.4525011 -388.4592812 200.57340444 -384.3203125 196.3046875 C-381.05049726 192.96881539 -377.56674694 189.94928107 -374 186.9375 C-373.05640625 186.13957031 -372.1128125 185.34164062 -371.140625 184.51953125 C-370.62266357 184.08181396 -370.10470215 183.64409668 -369.57104492 183.19311523 C-366.71210665 180.77684025 -363.85488367 178.35856464 -361 175.9375 C-360.38108887 175.41317383 -359.76217773 174.88884766 -359.12451172 174.34863281 C-347.70545738 164.64929798 -337.06645691 154.86208404 -327.91967773 142.93359375 C-322.66104863 136.10749775 -316.64629462 130.46200558 -310.13671875 124.84765625 C-301.52009975 117.14468241 -293.94847103 108.58696775 -286.6875 99.625 C-282.77513932 94.8092759 -278.65514024 90.23479952 -274.453125 85.671875 C-272.12283732 83.07442058 -269.92752832 80.41344286 -267.75 77.6875 C-259.59776683 67.6340393 -250.95101776 58.07502113 -240.7109375 50.1171875 C-237.65337208 47.65879916 -234.84347185 45.01108737 -232 42.3125 C-227.55076827 38.12519827 -222.91796322 34.86539196 -217.6875 31.72265625 C-214.80735549 29.809537 -212.44351025 27.69244571 -209.9375 25.3125 C-195.20609186 11.54639781 -178.23057196 1.09442699 -159 -5.0625 C-157.84757812 -5.43761719 -156.69515625 -5.81273437 -155.5078125 -6.19921875 C-152.11023921 -7.29173236 -148.69892676 -8.33429413 -145.28222656 -9.36523438 C-142.89778525 -10.09372864 -140.52376839 -10.85175066 -138.1484375 -11.609375 C-97.46311815 -24.30150235 -34.97174371 -28.14798884 0 0 Z M-93 74.9375 C-93.03996094 75.53175781 -93.07992187 76.12601562 -93.12109375 76.73828125 C-94.16907604 85.05744932 -98.39641032 89.93436738 -104 95.9375 C-104.49371094 96.49566406 -104.98742187 97.05382812 -105.49609375 97.62890625 C-116.0522476 106.81413103 -137.25640896 106.3460543 -150.36206055 106.38354492 C-167.84559047 106.68410036 -181.27324363 116.83246116 -193 128.9375 C-201.35422254 138.75797385 -204.50800739 151.55857736 -207 163.9375 C-205.35 162.6175 -203.7 161.2975 -202 159.9375 C-201.46375 160.845 -200.9275 161.7525 -200.375 162.6875 C-197.54125179 166.95324909 -193.83722919 169.32509027 -189 170.9375 C-185.94245072 171.21393387 -182.88119588 171.21488906 -179.8125 171.25 C-178.98685547 171.27900391 -178.16121094 171.30800781 -177.31054688 171.33789062 C-168.08342623 171.4324159 -162.48738899 167.90180049 -155.96118164 161.60620117 C-155.2933667 160.93177979 -154.62555176 160.2573584 -153.9375 159.5625 C-152.89033813 158.51316284 -152.89033813 158.51316284 -151.82202148 157.44262695 C-143.68477736 148.97106712 -137.90314479 139.10857995 -137.75 127.125 C-137.72421875 125.92230469 -137.6984375 124.71960938 -137.671875 123.48046875 C-138.0268467 119.64761955 -139.07797413 117.24034973 -141 113.9375 C-140.17757812 113.75574219 -139.35515625 113.57398438 -138.5078125 113.38671875 C-134.9986025 112.59653867 -131.49886295 111.7722343 -128 110.9375 C-127.14277344 110.74414062 -126.28554688 110.55078125 -125.40234375 110.3515625 C-114.84823934 107.63815335 -103.81052699 101.55528974 -97 92.9375 C-96.24589844 92.01517578 -96.24589844 92.01517578 -95.4765625 91.07421875 C-91.65725644 85.80948471 -91.41235494 81.31018417 -92 74.9375 C-92.33 74.9375 -92.66 74.9375 -93 74.9375 Z " fill="#000000" transform="translate(565,66.0625)"/>
<path d="M0 0 C2.58121086 1.94997043 4.23823285 4.30868168 6 7 C6.46664063 7.70253906 6.93328125 8.40507812 7.4140625 9.12890625 C11.74950097 16.62084816 12.31477714 24.55951696 13 33 C13.08878418 34.01916504 13.17756836 35.03833008 13.26904297 36.08837891 C15.98692305 67.4150406 13.33609489 96.3185958 7 127 C6.81679199 127.9187793 6.63358398 128.83755859 6.44482422 129.78417969 C4.66403447 138.67182416 1.98140854 146.89105854 -1.42236328 155.27075195 C-6.66231603 168.38198185 -8.76645551 182.00078251 -10 196 C-10.11214844 197.21300781 -10.22429687 198.42601562 -10.33984375 199.67578125 C-12.57497476 228.67124788 -10.75293618 257.69260369 -4 286 C-3.76297363 287.00385742 -3.52594727 288.00771484 -3.28173828 289.04199219 C4.11518632 319.77196521 17.11009218 345.06935814 36.85546875 369.62304688 C42.7740205 377.07635201 47.69726118 385.03846253 52.375 393.3125 C56.04149871 399.72607721 59.85445701 405.91924478 64.015625 412.0234375 C66.39243386 415.58865079 68.65088607 419.21312017 70.875 422.875 C71.25672363 423.49407227 71.63844727 424.11314453 72.03173828 424.75097656 C76.67610128 432.46860001 77.89782858 439.10027417 77 448 C75.41387289 454.35352052 72.38531136 461.00920084 67 465 C62.09267694 466.66363185 57.83053628 467.24978262 52.66253471 467.24888897 C51.95430073 467.25149625 51.24606675 467.25410354 50.51637113 467.25678983 C48.14907723 467.26307362 45.78205028 467.25513675 43.4147644 467.24723816 C41.69794527 467.24882691 39.98112677 467.25129116 38.26431 467.25455457 C33.55073665 467.26096532 28.83724925 467.25490193 24.12368155 467.24679029 C19.03829773 467.24021057 13.95292349 467.24516246 8.86753845 467.24867249 C-1.09481051 467.25371485 -11.05712628 467.24807181 -21.01947112 467.23882218 C-32.6247777 467.22843501 -44.2300771 467.22850849 -55.83538745 467.22899476 C-76.54879395 467.22949549 -97.26218501 467.22033235 -117.97558594 467.20581055 C-138.06445599 467.19173391 -158.15331245 467.18463931 -178.2421875 467.18530273 C-180.09676928 467.18536267 -180.09676928 467.18536267 -181.98881735 467.18542381 C-183.22308588 467.18546417 -184.4573544 467.18550452 -185.72902501 467.1855461 C-208.60611867 467.18623673 -231.48320658 467.18033994 -254.36029837 467.17139288 C-262.44445452 467.16838073 -270.52860961 467.16731381 -278.61276627 467.16686058 C-288.47314126 467.16617702 -298.33350654 467.16169277 -308.19387741 467.15252777 C-313.22225158 467.1479236 -318.25061337 467.14485916 -323.27898979 467.14612198 C-327.88818842 467.14722335 -332.49735976 467.14366016 -337.10655271 467.13647345 C-338.76807019 467.13467205 -340.42959053 467.13451808 -342.0911081 467.13624074 C-369.95832557 467.16191916 -369.95832557 467.16191916 -376.74609375 461.55859375 C-379.2926463 458.39325273 -379.38168514 454.93829666 -379 451 C-376.5664945 444.31230059 -372.7411646 438.42298741 -368.69921875 432.609375 C-366.45724004 429.16652033 -364.48782694 425.59393498 -362.5 422 C-359.64055832 416.83588044 -356.67733253 411.85344601 -353.3203125 406.9921875 C-351.96208829 404.94279594 -350.7885302 402.85274495 -349.625 400.6875 C-344.23900796 390.84705543 -337.55826711 381.99939801 -330.71557617 373.14746094 C-327.25101326 368.66123793 -323.93289268 364.11274006 -320.7265625 359.4375 C-318.6292209 356.47654715 -316.41362506 353.61422151 -314.1875 350.75 C-295.49845127 326.53494176 -280.51136947 300.67546968 -270.86132812 271.56787109 C-269.83278629 268.50148702 -268.76719697 265.44876385 -267.703125 262.39453125 C-266.88456598 260.01331309 -266.06685931 257.63180176 -265.25 255.25 C-264.66605469 253.58118774 -264.66605469 253.58118774 -264.0703125 251.87866211 C-261.82142923 245.23472571 -260.33156344 238.86739219 -259.5078125 231.89672852 C-257.52952536 220.61193191 -249.30539276 211.45187384 -240.49609375 204.75 C-234.32895972 200.42625032 -228.07705175 198.31388603 -220.87890625 196.1953125 C-216.26075589 194.80707146 -211.73026372 193.17737951 -207.1875 191.5625 C-201.17971828 189.4302175 -195.16712501 187.39850688 -189.0625 185.5625 C-173.64653566 180.87102687 -158.61357582 174.76730589 -144 168 C-142.86675293 167.48018555 -141.73350586 166.96037109 -140.56591797 166.42480469 C-119.4129897 156.69074254 -100.7519288 146.45278722 -84 130 C-83.48566406 129.49936035 -82.97132813 128.9987207 -82.44140625 128.48291016 C-72.7950703 119.08127038 -63.98779429 109.31659448 -56.1875 98.3125 C-55.74954102 97.69528076 -55.31158203 97.07806152 -54.86035156 96.44213867 C-53.98042901 95.20138341 -53.10102371 93.96026114 -52.22216797 92.71875 C-51.15838883 91.22274418 -50.08221076 89.73557021 -49.00390625 88.25 C-44.80239385 82.41092709 -41.28928628 76.39405163 -38 70 C-37.68385742 69.38817871 -37.36771484 68.77635742 -37.04199219 68.14599609 C-32.62956078 59.57707968 -28.54090402 50.97100987 -25 42 C-24.42750595 40.59487982 -23.85455657 39.18994511 -23.28125 37.78515625 C-19.88451415 29.36117896 -17.01943903 21.10096121 -15.01953125 12.234375 C-13.88036905 8.62048113 -12.22642068 6.04807593 -10 3 C-9.566875 2.38125 -9.13375 1.7625 -8.6875 1.125 C-5.65246614 -0.89835591 -3.52299505 -0.5971178 0 0 Z " fill="#000000" transform="translate(606,188)"/>
</svg>
